:FULLY-SPECIFIED
:FORCE-ALL-JOINTS-BE-3DOF
:DEGREES
272
root 8.32637 16.1822 -25.2008 21.0985 69.4874 18.6688
lfemur -25.0102 7.56722 -22.8414
ltibia 41.3756 -0 0
lfoot -6.66506 -21.408 -0.0957333
ltoes 63.5621 -0 0
rfemur -52.893 -5.07214 13.0413
rtibia 82.629 -0 0
rfoot 8.50964 -0.840543 -0.120781
rtoes -1.0292 0 0
lowerback 6.42033 -4.48133 -2.43051
upperback 1.47626 -6.13522 -1.7525
thorax -2.00615 -3.02439 0.0475655
lowerneck -5.35312 -11.1092 -4.60916
upperneck 0.694343 -14.6636 5.20324
head 1.91261 -7.24568 1.86101
lclavicle 3.20013e-14 1.21421e-14 3.74645e-31
lhumerus -45.1302 -35.3846 107.626
lradius 59.1975 -0 0
lwrist 20.327 0 0
lhand 18.9296 14.8793 0.0190319
lfingers 7.12502 -0 0
lthumb 43.5285 38.8684 -0.00247019
rclavicle 3.20013e-14 1.21421e-14 3.74645e-31
rhumerus -53.7738 2.32534 -94.9504
rradius 44.3259 -0 0
rwrist 25.217 0 0
rhand -24.475 3.84849 0.0490368
rfingers 7.12502 -0 0
rthumb 2.02321 -26.2123 -0.021333
273
root 8.38245 16.1633 -25.1638 22.0805 70.1915 20.0782
lfemur -24.4859 7.22181 -22.975
ltibia 41.5801 -0 0
lfoot -6.45704 -22.0133 -0.0472794
ltoes 63.5827 -0 0
rfemur -53.9424 -5.28948 13.805
rtibia 82.729 -0 0
rfoot 7.87628 -0.614651 -0.061036
rtoes 0.155094 -0 0
lowerback 6.59429 -4.55215 -2.56473
upperback 1.6103 -6.23647 -1.9546
thorax -1.96677 -3.07747 -0.0740081
lowerneck -5.15899 -11.2169 -4.72692
upperneck 0.669326 -14.8154 5.42218
head 1.90497 -7.32046 1.94913
lclavicle 3.18427e-14 1.21037e-14 2.34877e-31
lhumerus -44.8461 -35.5135 107.11
lradius 59.1462 -0 0
lwrist 20.3217 0 0
lhand 19.3837 14.9988 0.00862666
lfingers 7.12502 -0 0
lthumb 43.9568 38.8667 -0.00120172
rclavicle 3.18427e-14 1.21037e-14 2.34877e-31
rhumerus -54.5042 3.12109 -96.0931
rradius 45.248 -0 0
rwrist 24.2058 0 0
rhand -24.5677 3.69754 0.00629027
rfingers 7.12502 -0 0
rthumb 1.93024 -26.2962 -0.0118937
274
root 8.4395 16.1423 -25.1255 23.0313 70.8426 21.4534
lfemur -23.9806 6.96001 -23.0939
ltibia 41.8329 0 0
lfoot -6.34822 -22.6063 0
ltoes 63.6522 0 0
rfemur -54.677 -5.40979 14.4999
rtibia 82.6074 0 0
rfoot 7.37167 -0.590177 0
rtoes 1.37596 0 0
lowerback 6.738 -4.61229 -2.71573
upperback 1.7394 -6.3233 -2.13178
thorax -1.91208 -3.12316 -0.164029
lowerneck -4.98008 -11.3206 -4.84023
upperneck 0.669695 -14.9622 5.62359
head 1.90668 -7.39287 2.03008
lclavicle 3.07285e-14 1.19908e-14 0
lhumerus -44.5846 -35.6402 106.647
lradius 59.1166 0 0
lwrist 20.3141 0 0
lhand 19.7519 15.0959 0
lfingers 7.12502 0 0
lthumb 44.3039 38.8645 0
rclavicle 3.07285e-14 1.19908e-14 0
rhumerus -55.2369 3.9752 -97.0583
rradius 46.1277 0 0
rwrist 23.439 0 0
rhand -24.7442 3.49961 0
rfingers 7.12502 0 0
rthumb 1.75858 -746.473 0
275
root 8.49887 16.1171 -25.0849 23.9706 71.4641 22.8354
lfemur -23.4778 6.77714 -23.1859
ltibia 42.1675 -0 0
lfoot -6.33108 -23.2136 0.0472233
ltoes 63.708 -0 0
rfemur -55.0882 -5.44098 15.1529
rtibia 82.2075 -0 0
rfoot 6.92945 -0.7946 0.0624182
rtoes 2.81979 -0 0
lowerback 6.85155 -4.66662 -2.88956
upperback 1.86836 -6.40212 -2.29024
thorax -1.83663 -3.16477 -0.225452
lowerneck -4.81033 -11.419 -4.95804
upperneck 0.706651 -15.1027 5.8122
head 1.92195 -7.46217 2.10697
lclavicle 2.85002e-14 1.17716e-14 -3.5094e-31
lhumerus -44.3308 -35.7628 106.216
lradius 59.1106 -0 0
lwrist 20.3036 0 0
lhand 20.0552 15.1829 -0.00720894
lfingers 7.12502 -0 0
lthumb 44.5897 38.8684 0.000912814
rclavicle 2.85002e-14 1.17716e-14 -3.5094e-31
rhumerus -56.0506 4.9261 -97.9131
rradius 47.0729 -0 0
rwrist 22.8698 0 0
rhand -24.9838 3.22615 0.0178803
rfingers 7.12502 -0 0
rthumb 1.52722 -26.752 0.0167321
276
root 8.5614 16.0859 -25.0413 24.9329 72.076 24.2762
lfemur -22.9615 6.66106 -23.2404
ltibia 42.6078 -0 0
lfoot -6.38793 -23.8574 0.0956813
ltoes 63.6826 -0 0
rfemur -55.2089 -5.40265 15.799
rtibia 81.5043 -0 0
rfoot 6.47192 -1.22459 0.126086
rtoes 4.6467 -0 0
lowerback 6.9389 -4.72033 -3.08921
upperback 2.00214 -6.47969 -2.43858
thorax -1.73751 -3.20586 -0.264973
lowerneck -4.643 -11.5106 -5.0879
upperneck 0.786088 -15.2355 5.99437
head 1.95308 -7.52751 2.18335
lclavicle 2.514e-14 1.14253e-14 -8.15961e-31
lhumerus -44.0694 -35.8811 105.795
lradius 59.1269 -0 0
lwrist 20.2898 0 0
lhand 20.3222 15.2732 -0.0138733
lfingers 7.12502 -0 0
lthumb 44.8411 38.8839 0.00129905
rclavicle 2.514e-14 1.14253e-14 -8.15961e-31
rhumerus -57.0142 5.99717 -98.7404
rradius 48.1896 -0 0
rwrist 22.4184 0 0
rhand -25.2508 2.85487 0.0424382
rfingers 7.12502 -0 0
rthumb 1.26941 -27.1308 0.0394261
